<?xml version="1.0" standalone="no"?>
<!DOCTYPE svg PUBLIC "-//W3C//DTD SVG 20010904//EN"
 "http://www.w3.org/TR/2001/REC-SVG-20010904/DTD/svg10.dtd">
<svg version="1.0" xmlns="http://www.w3.org/2000/svg"
 width="1000.000000pt" height="1000.000000pt" viewBox="0 0 1000.000000 1000.000000"
 preserveAspectRatio="xMidYMid meet">
<metadata>
Created by potrace 1.14, written by Peter Selinger 2001-2017
</metadata>
<g transform="translate(0.000000,1000.000000) scale(0.100000,-0.100000)"
fill="#000000" stroke="none">
<path d="M4438 8875 c-1 -1 -73 -6 -158 -9 -85 -4 -175 -8 -200 -11 -25 -2
-85 -6 -135 -10 -105 -7 -149 -11 -315 -30 -19 -2 -60 -7 -90 -10 -96 -10
-190 -22 -275 -35 -33 -5 -82 -12 -110 -15 -27 -4 -57 -8 -65 -10 -8 -2 -37
-7 -65 -10 -27 -4 -57 -8 -65 -10 -14 -4 -31 -7 -115 -21 -16 -3 -37 -7 -45
-9 -8 -2 -32 -6 -53 -9 -54 -8 -342 -70 -472 -101 -11 -2 -71 -17 -133 -32
l-114 -28 -96 -96 c-121 -120 -250 -256 -322 -339 -57 -66 -69 -80 -108 -124
-13 -14 -55 -65 -93 -113 -39 -48 -77 -97 -87 -108 -54 -65 -259 -351 -339
-475 -52 -80 -104 -157 -114 -172 -10 -15 -19 -30 -19 -32 0 -3 -16 -31 -36
-62 -146 -228 -386 -710 -504 -1009 -17 -44 -40 -99 -50 -122 -11 -24 -20 -46
-20 -51 0 -4 -18 -57 -39 -117 -69 -193 -152 -475 -177 -604 -3 -13 -9 -32
-14 -42 -9 -15 -2 -20 48 -34 31 -10 83 -22 115 -28 57 -10 58 -10 90 20 l32
31 64 -30 65 -29 105 36 c136 48 691 255 712 266 9 4 27 37 39 71 13 35 26 68
30 73 4 6 12 29 19 53 6 23 16 42 22 42 6 0 36 -17 67 -39 77 -52 134 -79 152
-73 8 3 98 45 199 94 101 48 185 88 186 88 2 0 63 29 137 64 73 35 186 89 250
119 l118 56 1 38 c1 67 9 167 14 171 2 2 30 -16 62 -40 112 -86 99 -83 189
-47 44 17 93 37 109 44 17 8 91 39 165 70 74 31 153 65 175 75 102 46 167 70
174 65 5 -2 46 -73 92 -157 45 -84 92 -171 104 -193 12 -22 42 -76 65 -120 24
-44 67 -123 95 -175 28 -52 73 -135 100 -185 27 -49 65 -121 87 -158 21 -38
38 -72 38 -76 0 -4 -52 -21 -115 -38 l-116 -31 -77 25 c-65 20 -182 48 -291
68 -111 21 -435 28 -561 12 -181 -23 -425 -99 -606 -187 -82 -41 -266 -149
-309 -182 -170 -131 -243 -194 -355 -308 -120 -121 -212 -230 -195 -230 3 0
52 14 108 31 56 17 109 32 117 34 8 2 42 10 75 19 79 20 190 43 246 51 24 3
51 7 60 8 8 2 74 61 145 132 178 178 346 294 504 350 l45 16 -35 -38 c-19 -21
-38 -40 -41 -43 -18 -17 -228 -264 -277 -326 l-32 -42 32 8 c18 4 125 31 238
60 113 28 210 53 217 54 6 1 46 30 90 64 43 35 122 85 175 112 101 51 258 105
258 89 0 -5 -3 -9 -7 -9 -14 0 -80 -66 -108 -108 -15 -23 -52 -61 -81 -86 -30
-24 -51 -47 -47 -49 5 -3 62 -8 128 -12 153 -8 237 -14 241 -18 7 -7 -21 -67
-31 -68 -5 0 -19 -2 -30 -4 -11 -2 -42 -7 -70 -10 -687 -75 -1256 -496 -1598
-1180 -69 -138 -165 -381 -154 -391 1 -1 47 32 102 73 125 94 301 211 382 253
58 30 62 35 83 94 53 145 169 352 265 471 90 111 183 186 146 117 -6 -10 -40
-102 -77 -203 -81 -223 -76 -214 -144 -286 -138 -145 -271 -316 -357 -459 -54
-92 -54 -92 -129 -124 -41 -18 -74 -36 -74 -39 0 -4 23 -13 51 -20 40 -11 49
-16 44 -30 -18 -43 -55 -171 -61 -209 -33 -220 27 -404 179 -553 100 -98 203
-157 492 -285 208 -91 544 -210 830 -292 125 -36 397 -107 450 -118 11 -2 52
-11 90 -19 60 -13 113 -24 241 -49 12 -2 39 -7 60 -10 22 -4 64 -11 94 -16 30
-5 73 -12 95 -15 22 -4 51 -8 65 -10 77 -12 235 -31 335 -40 33 -3 78 -8 100
-11 227 -25 883 -25 1140 0 108 11 168 18 183 21 9 1 42 6 72 10 528 66 1078
246 1495 488 66 38 262 166 288 187 7 6 37 29 67 52 30 24 60 47 67 53 6 5 37
33 69 60 65 55 201 190 279 276 45 49 75 85 166 193 108 128 271 379 335 516
110 234 149 389 148 590 0 195 -34 323 -127 485 -149 258 -447 490 -863 670
l-112 48 19 31 c30 49 25 73 -21 96 -22 11 -51 21 -65 22 -14 1 -25 6 -25 10
0 8 69 201 92 258 8 19 14 40 13 45 -4 37 -23 59 -71 87 -31 17 -53 36 -51 42
3 6 93 211 201 455 107 244 198 451 201 461 3 10 -5 29 -22 48 -26 29 -33 31
-123 37 -52 3 -113 8 -135 10 -22 1 -87 6 -145 10 -58 4 -121 8 -140 10 -35 4
-131 10 -290 21 -80 5 -87 7 -113 37 -51 57 -51 55 19 181 35 65 64 119 64
121 0 2 -29 5 -65 7 l-65 3 35 58 c19 31 32 57 30 57 -2 0 7 16 20 36 13 19
27 44 30 55 4 11 11 17 16 14 5 -4 9 1 9 9 0 9 8 17 18 17 9 1 28 4 42 6 14 2
106 6 205 8 185 5 316 -10 436 -48 l46 -14 -24 80 c-12 44 -22 82 -20 83 2 2
59 -50 127 -116 l125 -118 125 -52 c69 -28 134 -55 145 -60 85 -36 118 -50
121 -50 9 0 2 23 -22 77 -37 80 -94 214 -94 220 0 10 68 -45 118 -97 61 -62
129 -161 166 -242 22 -47 47 -74 187 -193 156 -132 162 -136 156 -104 -11 60
-52 224 -87 343 -11 38 -17 72 -15 75 7 7 57 -52 110 -131 60 -87 125 -227
165 -354 l32 -101 75 -54 c42 -30 81 -58 87 -64 6 -5 40 -35 76 -65 36 -30 87
-75 113 -100 27 -25 52 -46 57 -48 13 -5 -15 106 -62 248 -37 109 -184 424
-206 439 -4 3 -19 24 -32 46 -100 164 -319 376 -507 489 -116 69 -338 161
-437 180 -12 2 -41 9 -66 15 -156 35 -363 47 -530 29 -65 -7 -65 -7 -30 8 87
39 277 105 352 124 46 11 89 23 96 25 15 5 -6 63 -50 139 -16 27 -27 50 -25
53 7 6 171 -81 245 -130 64 -44 71 -46 162 -52 52 -4 109 -9 125 -10 56 -5
189 -15 275 -20 l85 -6 -76 73 c-41 40 -120 114 -175 165 l-99 92 63 -19 c90
-28 157 -58 242 -108 71 -43 208 -145 257 -191 19 -18 39 -22 115 -26 51 -3
107 -7 123 -10 17 -2 53 -7 80 -10 75 -10 104 -15 169 -26 56 -10 83 -6 60 9
-6 4 -46 39 -89 77 -161 145 -377 285 -555 361 -93 39 -242 90 -287 98 -15 2
-53 9 -83 16 -138 27 -364 32 -504 10 -86 -13 -308 -71 -359 -94 -18 -8 -66
-29 -107 -47 -268 -118 -506 -326 -654 -573 -29 -48 -37 -56 -42 -40 -72 202
-173 362 -329 520 -164 166 -363 293 -597 380 l-77 28 37 36 c20 20 90 85 154
145 110 101 118 110 117 144 -2 59 -1 64 22 58 32 -8 33 14 3 90 l-27 70 -116
18 c-64 11 -120 20 -126 21 -5 1 -30 5 -55 8 -25 4 -52 9 -60 11 -8 2 -37 7
-65 10 -63 8 -96 13 -143 19 -20 3 -62 8 -92 11 -30 3 -66 8 -80 10 -14 2 -59
7 -100 10 -41 3 -88 7 -105 9 -16 2 -79 7 -140 11 -60 4 -132 9 -160 12 -60 5
-922 13 -927 8z m1877 -991 c-11 -8 -75 -43 -142 -77 -68 -34 -123 -65 -123
-68 0 -4 10 -9 23 -12 12 -3 104 -30 203 -60 120 -36 195 -53 220 -51 22 2 73
6 114 9 41 3 104 8 140 11 l65 6 -74 -53 -75 -52 35 -15 c91 -41 161 -78 235
-128 109 -72 126 -95 33 -46 -72 38 -259 108 -317 118 -15 3 -43 9 -62 14 -92
24 -342 32 -485 16 -250 -28 -501 -115 -696 -241 -310 -200 -573 -536 -713
-910 -21 -55 -42 -110 -47 -123 -11 -28 -13 -29 106 58 50 37 100 72 112 78
12 7 28 18 35 26 8 8 55 37 104 65 88 50 89 51 113 113 33 87 99 211 155 295
46 69 173 209 181 201 3 -2 -10 -40 -27 -84 -48 -124 -128 -354 -123 -354 10
0 355 243 355 250 0 21 107 167 162 221 60 59 164 136 172 128 2 -2 -30 -64
-70 -137 -41 -73 -74 -136 -74 -141 0 -5 30 2 68 14 37 12 126 39 197 60 139
41 125 33 326 189 l96 75 -30 -79 c-17 -44 -28 -82 -25 -85 3 -3 17 -1 31 4
72 28 375 31 512 6 17 -3 41 -8 55 -10 39 -7 84 -16 101 -21 14 -4 12 -22 -15
-159 l-30 -155 -33 0 -32 0 1 -72 c0 -40 -1 -96 -1 -124 l-1 -50 -61 -33 c-66
-35 -50 -35 -284 -16 -66 5 -189 13 -300 21 -49 3 -106 7 -125 9 -29 4 -166
13 -260 19 -21 1 -28 -9 -65 -95 -71 -170 -77 -183 -90 -214 -13 -30 -272
-643 -295 -700 -7 -16 -20 -46 -28 -65 -8 -19 -39 -91 -68 -160 -42 -97 -57
-125 -71 -123 -10 1 -47 4 -83 8 -36 3 -76 7 -90 10 -96 16 -296 28 -485 29
-192 0 -382 -10 -510 -27 -16 -3 -55 -7 -85 -11 l-55 -7 -47 93 c-140 278
-508 1032 -508 1039 0 5 4 9 10 9 5 0 33 11 62 24 29 13 75 33 101 45 l49 21
-6 57 c-4 32 -9 87 -12 123 -3 36 -7 77 -10 93 -4 27 -4 27 28 14 18 -7 81
-33 140 -57 l108 -43 45 24 c25 13 45 27 45 31 0 5 4 8 9 8 5 0 65 34 133 77
68 42 137 84 153 93 33 20 307 188 371 229 23 14 50 31 60 37 18 11 18 15 -9
124 -15 62 -26 115 -23 117 2 3 28 -7 58 -20 67 -31 143 -57 166 -57 9 0 44
19 78 43 99 69 683 461 697 468 172 86 309 124 447 126 68 1 73 0 55 -13z
m-2405 -3189 c0 -6 -56 -35 -67 -35 -14 1 39 40 53 40 8 0 14 -2 14 -5z"/>
<path d="M7581 8078 c-53 -9 -66 -20 -108 -90 -56 -93 -93 -212 -108 -354 -7
-56 -13 -174 -9 -174 1 0 20 28 42 63 53 83 81 117 179 214 82 81 227 201 311
257 23 16 42 30 42 32 0 2 -30 12 -67 23 -116 33 -207 43 -282 29z"/>
<path d="M7075 8023 c-31 -6 -109 -26 -117 -30 -4 -2 8 -25 26 -51 49 -68 139
-228 166 -294 13 -32 26 -58 30 -58 12 0 20 304 9 363 -4 22 -13 45 -21 53
-15 15 -59 23 -93 17z"/>
</g>
</svg>
